<?xml version="1.0" encoding="UTF-8"?>
<svg width="20px" height="18px" viewBox="0 0 20 18" version="1.1" xmlns="http://www.w3.org/2000/svg" xmlns:xlink="http://www.w3.org/1999/xlink">
    <title>Fill 1</title>
    <g id="v3" stroke="none" stroke-width="1" fill="none" fill-rule="evenodd">
        <g id="Home" transform="translate(-1362.000000, -31.000000)" fill="#F5D0C4">
            <path d="M1378.44094,46.7504062 C1378.44112,47.20936 1378.80854,47.5843138 1379.25605,47.5823829 C1379.70556,47.5804369 1380.07352,47.2049292 1380.07262,46.7492062 C1380.07171,46.2915446 1379.70501,45.91936 1379.25497,45.9191754 C1378.80357,45.9190831 1378.44067,46.2896062 1378.44094,46.7504062 L1378.44094,46.7504062 Z M1368.82574,46.7504985 C1368.82637,46.2926523 1368.4604,45.9199138 1368.00972,45.919544 C1367.55995,45.9189908 1367.19144,46.2923754 1367.19108,46.7490215 C1367.19071,47.2032677 1367.56239,47.5828369 1368.00827,47.5833916 C1368.45497,47.5840369 1368.82519,47.2068677 1368.82574,46.7504985 L1368.82574,46.7504985 Z M1366.66492,35.3402523 C1366.67026,35.3957292 1366.6709,35.4418831 1366.67949,35.48656 C1367.07877,37.5715138 1367.48022,39.6561908 1367.87515,41.7419754 C1367.90004,41.8737908 1367.95406,41.8962215 1368.07053,41.8962215 C1371.74185,41.8934523 1375.41307,41.8930831 1379.08438,41.8968683 C1379.22185,41.8970523 1379.26936,41.8560677 1379.29542,41.7174215 C1379.64456,39.86296 1380.00085,38.0098831 1380.35479,36.1563446 C1380.4061,35.8875446 1380.45406,35.6181908 1380.50519,35.3402523 L1366.66492,35.3402523 Z M1368.17081,43.2687446 C1368.25053,43.6830215 1368.32411,44.0756062 1368.40474,44.4668062 C1368.41108,44.4977292 1368.46257,44.5323446 1368.49841,44.5404677 C1368.55361,44.5530215 1368.61352,44.5444369 1368.67144,44.5445292 C1372.18728,44.5446215 1375.70311,44.5435138 1379.21886,44.54536 C1380.22854,44.5459138 1381.06737,45.1815446 1381.33596,46.1394215 C1381.59008,47.0460677 1381.25895,48.0077292 1380.5051,48.5522523 C1379.75488,49.0940062 1378.74963,49.09216 1377.9975,48.5474523 C1377.25008,48.00616 1376.91913,47.0324062 1377.17614,46.1300985 C1377.1937,46.0684369 1377.21207,46.0070523 1377.23433,45.9310831 L1370.03307,45.9310831 C1370.049,45.9914523 1370.06139,46.0449908 1370.07723,46.0975138 C1370.409,47.2027138 1369.85768,48.37936 1368.81008,48.8010215 C1367.75732,49.2247138 1366.56348,48.7569908 1366.06646,47.7260062 C1365.56755,46.69096 1365.92655,45.44176 1366.90465,44.8577292 C1367.04918,44.7714215 1367.07262,44.6925908 1367.04311,44.5391754 C1366.27958,40.5716062 1365.52076,36.6031138 1364.75877,32.6351754 C1364.70022,32.3302831 1364.75723,32.3793908 1364.46058,32.3776369 C1363.88139,32.3742215 1363.30212,32.3792062 1362.72293,32.3755138 C1362.34936,32.3731138 1362.07062,32.1525908 1362.01252,31.8248985 C1361.93524,31.3889292 1362.22284,31.0217292 1362.65741,31.0016985 C1362.67479,31.0008677 1362.69216,31.0005908 1362.70954,31.0005908 C1363.54936,31.0005908 1364.38927,30.9986523 1365.22909,31.0015138 C1365.61578,31.0028062 1365.86049,31.2126215 1365.9347,31.59736 C1366.07452,32.3212369 1366.21243,33.0453908 1366.35162,33.7694523 C1366.36266,33.8268677 1366.37669,33.8837292 1366.39243,33.9549908 L1366.60384,33.9549908 C1371.43443,33.9550831 1376.26501,33.9551754 1381.0956,33.9552677 C1381.15931,33.9552677 1381.22302,33.9546215 1381.28673,33.9554523 C1381.77225,33.9620062 1382.07578,34.3305908 1381.98393,34.8136369 C1381.48719,37.4268677 1380.98836,40.0397292 1380.4889,42.6524985 C1380.40872,43.0722215 1380.16284,43.2686523 1379.72728,43.2686523 C1375.96827,43.2688369 1372.20918,43.2687446 1368.45017,43.2687446 L1368.17081,43.2687446 Z" id="Fill-1"></path>
        </g>
    </g>
</svg>