<?xml version="1.0" encoding="UTF-8"?>
<svg width="40px" height="40px" viewBox="0 0 40 40" version="1.1" xmlns="http://www.w3.org/2000/svg" xmlns:xlink="http://www.w3.org/1999/xlink">
    <title>insta_icon</title>
    <g id="Page-1" stroke="none" stroke-width="1" fill="none" fill-rule="evenodd">
        <g id="Home" transform="translate(-20.000000, -20.000000)" fill="#F9F9F9">
            <g id="insta_icon" transform="translate(20.000000, 20.000000)">
                <path d="M19.9959227,3.07792687 L19.9959227,3.07683033 C17.2372525,3.07683033 14.4785822,3.07874928 11.7199119,3.07558889 C10.9210591,3.07463724 10.1345417,3.16181239 9.36344349,3.37084084 C5.66913478,4.37260115 3.08898483,7.70643368 3.08103537,11.5305579 C3.0691797,17.1862511 3.07370267,22.8419443 3.08528422,28.4975689 C3.0863807,29.027062 3.14408285,29.5651218 3.24955034,30.0841977 C4.06608385,34.1016561 7.52978952,36.9199079 11.6278078,36.9220211 C12.6944068,36.9220211 13.7609373,36.9220211 14.8274678,36.9220211 C19.3448889,36.9220211 23.8623785,36.9220211 28.3797996,36.9220211 C29.6968753,36.9216213 30.9652263,36.6680458 32.133044,36.0589848 C35.2411481,34.4380891 36.881959,31.8545659 36.9108786,28.3513175 C36.9567937,22.7832107 36.9228028,17.2145556 36.9235567,11.6460375 C36.9236937,10.9355464 36.8408411,10.2357465 36.6752729,9.54478754 C35.7798615,5.8082497 32.3419916,3.08471173 28.5026737,3.07874928 C25.6671129,3.07443164 22.8314835,3.07792687 19.9959227,3.07792687 M11.0158359,0 L28.9848499,0 C29.0346026,0.00897794349 29.0840126,0.0233015327 29.1341765,0.0261114234 C29.8112517,0.0638736132 30.4786642,0.166537425 31.1362084,0.330333493 C33.606642,0.945699559 35.662881,2.23208123 37.2967019,4.18022644 C38.762693,5.92832113 39.6340504,7.94239596 39.9126244,10.2094295 C39.9455187,10.4774657 39.9710119,10.7464613 40,11.0150457 L40,28.98368 C39.9907485,29.0385757 39.9804005,29.0932657 39.9723825,29.1482985 C39.882951,29.7609232 39.8403939,30.3845819 39.6969609,30.9841851 C38.9263424,34.2059647 37.1061203,36.6759957 34.2724098,38.3846148 C32.4776122,39.466834 30.5157389,39.9948193 28.4202322,39.9968068 C22.8413518,40.0021524 17.2624715,39.9999577 11.6836596,39.9962585 C11.2896128,39.9960529 10.8942639,39.9754242 10.5016563,39.9401292 C8.93520028,39.7993606 7.46030022,39.3454604 6.08264406,38.5903537 C2.28704819,36.5096639 0.00116554602,32.6412668 0.000822896623,28.3143092 C0,22.7663513 0.00150819541,17.2183249 0,11.6703671 C0,10.5093339 0.16296459,9.37386394 0.493552726,8.26080455 C1.78691713,3.90554249 5.68037368,0.617833287 10.1773043,0.0882031547 C10.456358,0.0553068732 10.7363026,0.0292639837 11.0158359,0" id="Fill-1"></path>
                <path d="M20.0118451,12.3600668 C15.766881,12.3600668 12.3634623,15.7522865 12.3590332,19.9878125 C12.3546806,24.2235427 15.7557847,27.6355056 19.9880868,27.6411634 C24.2274007,27.6468749 27.6430729,24.234844 27.6412357,19.9961863 C27.639465,15.7659025 24.2366589,12.3600668 20.0118451,12.3600668 M30.6976744,20.0011562 C30.6969937,25.8912292 25.8840783,30.6992395 19.9904014,30.697674 C14.1097949,30.6961078 9.30232558,25.8819022 9.30232558,19.9975479 C9.30232558,14.0838511 14.1689522,9.21620279 20.162087,9.30348129 C25.955353,9.38783235 30.6937941,14.1397448 30.6976744,20.0011562" id="Fill-4"></path>
                <path d="M33.4883721,7.9132937 C33.4852518,8.67839147 32.8551756,9.30387739 32.089186,9.30232558 C31.3183468,9.3007058 30.6914416,8.66520763 30.6977212,7.89183888 C30.704063,7.12481329 31.3319009,6.5084068 32.1036105,6.51162791 C32.8695379,6.51487434 33.4914692,7.14434029 33.4883721,7.9132937" id="Fill-6"></path>
            </g>
        </g>
    </g>
</svg>