<svg height="28" viewBox="0 0 120 28" width="120" xmlns="http://www.w3.org/2000/svg" xmlns:xlink="http://www.w3.org/1999/xlink"><filter id="a"><feColorMatrix in="SourceGraphic" type="matrix" values="0 0 0 0 0.960784 0 0 0 0 0.815686 0 0 0 0 0.768627 0 0 0 1.000000 0"/></filter><g fill="#f5d0c4" fill-rule="evenodd"><path d="m77 3.3727889v9.7276082h-7.2088889c.2833333-1.1339625.6995556-2.2307331 1.24-3.26733065.6648889-1.33302204 1.4946667-2.57722776 2.47-3.70364082 1.1015556-1.2686302 2.2677778-2.1874351 3.4988889-2.75663673m-7.6155556 17.739951c-.1017777-.8400914-.1482222-1.6860669-.1388888-2.5323755 0-.3053061 0-.756049.0166666-1.3554482.0166667-.5996212.0166667-1.0314906.0166667-1.3068212h7.7211111v4.2533029c.0106667.4320914-.0191111.8644049-.0888889 1.2910563-.088.5044767-.3002222.9792-.6177778 1.3810939h4.8066667c-.2797778-.4357551-.4777778-.9188049-.5844444-1.4255021-.0656667-.4122187-.0954445-.8294334-.0888889-1.2466481v-17.52912329c-.0037778-.45029877.0393333-.89982041.1288889-1.34112653.1026666-.44397061.2873333-.86484898.5444444-1.24120816-.2138889-.0320849-.4294444-.05217959-.6455556-.05995102h-.4544444c-2.2422222 0-4.5385556.86085224-6.8888889 2.58233469-2.1874444 1.6091298-3.9226667 3.71396572-5.2055555 6.31484082-1.2828889 2.60087509-1.9228889 5.21462859-1.92 7.84137139v3.4328621c-.0031112.4542955-.0838889.9049273-.2388889 1.3322449-.1723334.4836049-.4263334.9342367-.7511111 1.3322449h4.9566666c-.3083333-.5281241-.5017778-1.115311-.5677778-1.7231478"/><path d="m33.1599889 23.5141002h-9.0733333v-14.74351016h9.7777777v-3.41165714h-9.7777777v-1.40551837h7.4322222c.7844444 0 1.4241111.07405061 1.9188889.22204082.2945555.0995853.581.22159673.8566666.36525714.2.09991837.4233334.22204082.6666667.35970612v-4.35977143h-15.4444444c.3446666.48182858.5784444 1.03382204.6844444 1.61645715.0716667.48848979.1032222.98197551.0944444 1.47546122v20.19683265c.0092223.500702-.0223333 1.001071-.0944444 1.4965551-.0978889.5804147-.3324444 1.1290776-.6844444 1.6009143h17.0888888v-4.363102c-.6788888.3397224-1.0844444.5407804-1.23.6007314-.6133333.2352522-1.3533333.3496032-2.2155555.3496032"/><path d="m65.9633222 27.0978723h14.2523334s.2832222-1.7019428.9398888-2.6578285l-15.96-.0299756c.8733334 1.4510368.7677778 2.6878041.7677778 2.6878041"/><path d="m118.765511 23.1644526c-.612222.2352522-1.345444.3496032-2.207778.3496032h-9.073222v-14.74339915h9.777778v-3.41165714h-9.777778v-1.40562939h7.432111c.784556 0 1.417778.07438368 1.913334.22204082.296777.09836408.585222.22048653.862333.36536816.205444.10424817.427667.22204082.666667.35970612v-4.35977142h-15.452223c.348667.4792751.582556 1.03237877.683223 1.61645714.077222.48782367.111111.98164245.101111 1.47546122v20.19672164c.010555.5009241-.023334 1.0017371-.101111 1.4966661-.092445.5816359-.327112 1.13152-.683223 1.6009143h17.093223v-4.363102c-.677667.3396114-1.089223.5398922-1.234445.6006204"/><path d="m97.6600444 17.8853433c0 1.8407184-.4778888 3.2517878-1.4444444 4.237649-.8888889.9059266-2.0756667 1.3567804-3.5555556 1.3567804h-4.8566666v-17.91991507c2.4146666.73062531 4.6325555 2.28668735 6.6533333 4.66840817 2.1355556 2.5223837 3.2033333 5.0747429 3.2033333 7.6570775m-6.0411111-14.70787261c-2.8534444-1.70238693-5.6493333-2.66970775-8.3877777-2.90218449.345.50891756.578 1.08522449.6833333 1.69084082.0735555.48860082.1051111.98264163.0944444 1.47657143v20.38667755c.012.500702-.0195555 1.0015151-.0944444 1.4966661-.0975556.5801927-.3316667 1.1288555-.6833333 1.6008033h10.0898888c2.4645556 0 4.4485556-.7970155 5.9523334-2.3913796 1.5036662-1.5942531 2.2565552-3.8246531 2.2588892-6.691089 0-2.8266906-.977-5.608862-2.9311114-8.34662529-1.7977778-2.5067298-4.1252223-4.61356408-6.9822223-6.32028082"/><path d="m61.8888889 2.38693878c.9066667-.65502041 1.7955555-1.27040654 2.6666667-1.84626939h-8.1655556c0 .64502857-.0388889 1.11020408-.1111111 1.38553469-.0823333.30885878-.2643333.58208-.5177778.77714286-.2722222.23536326-.9677778.82044082-2.0911111 1.76189388-.9622222.80489796-1.7911111 1.49544489-2.4811111 2.05609796v-2.88653062c-.0035556-.49470694.0392222-.98874775.1277778-1.47546122.1122222-.55843265.2916666-1.10110041.5344444-1.61645714h-5.1622222c.3036667.54733061.5156667 1.14062367.6277778 1.75634285.0606666.44141715.087.88683102.0788889 1.3322449v20.19794285c.0057777.4491886-.0281112.8979331-.1011112 1.3411265-.1104444.6130547-.3147777 1.2053486-.6055555 1.7563429h5.1622222c-.242-.5149127-.4214444-1.0568033-.5344444-1.6142367-.0887778-.4889339-.1315556-.9851951-.1277778-1.4821225v-12.2055837l6.0633333 11.3296327c.2307778.4438596.4011111.9165845.5066667 1.4055184.1315555.5881861.1967778 1.1892506.1944444 1.7918693 0 .0843756-.0055555.1898449-.0111111.3197388-.0055555.1298939-.0166666.2808817-.0277778.4551837h6.57c-.6236666-.680222-1.1855555-1.3422367-1.6855555-1.9861551-.5191111-.6748931-.9895556-1.3856457-1.4076667-2.127151-.4845555-.8807249-1.2337778-2.2766955-2.2478889-4.1876898-.7955555-1.5017731-1.8503333-3.4915919-3.1644444-5.9695674-1.1466667-2.1671183-1.857-3.51013221-2.1311111-4.02893058l6.1966666-4.81828572c.4733334-.38635102 1.0911112-.86151836 1.8444445-1.42217142"/><path d="m14.4355444 17.8853433c0 1.8407184-.484 3.2533421-1.4522222 4.237649-.8844444.9059266-2.0696666 1.3581127-3.55555553 1.3567834h-4.85v-17.91991807c2.40888889.73428898 4.62377777 2.29035102 6.64444443 4.66840817 2.1392222 2.5223837 3.2104445 5.0747429 3.2133333 7.6570775m-6.04666662-14.70787261c-2.85177778-1.70094367-5.64811111-2.66826449-8.38888889-2.90218449.34544444.50880654.57877778 1.08522449.68444444 1.69084082.07588889.48804571.10933334.98175347.1 1.47546122v20.38778776c.01066667.5009241-.02277777 1.0017371-.1 1.4966661-.09788889.5803037-.33244444 1.1289666-.68444444 1.6008033h10.09111111c2.4644444 0 4.4504444-.7970155 5.9577778-2.3913796 1.5074444-1.5942531 2.26-3.8246531 2.2577827-6.691089 0-2.8266906-.9788938-5.608862-2.9366716-8.34662529-1.797-2.5067298-4.1241111-4.61356408-6.98111112-6.32028082"/></g></svg>