<?xml version="1.0" encoding="UTF-8"?>
<svg width="23px" height="25px" viewBox="0 0 23 25" version="1.1" xmlns="http://www.w3.org/2000/svg" xmlns:xlink="http://www.w3.org/1999/xlink">
    <g id="v3" stroke="none" stroke-width="1" fill="none" fill-rule="evenodd">
        <g id="Product-Copy" transform="translate(-871.000000, -536.000000)" fill="#252286">
            <path d="M882.833456,556.93426 C883.029165,556.91686 883.225499,556.904086 883.420411,556.880961 C883.789362,556.837188 884.156209,556.768141 884.526298,556.745677 C884.884557,556.723928 885.24583,556.746833 885.605795,556.751238 C885.969343,556.755643 886.333118,556.755533 886.696211,556.771005 C886.780671,556.774639 886.862629,556.833443 886.931392,556.922532 C887.147803,556.942409 887.432521,556.886797 887.565383,556.999231 C887.787823,557.187429 888.06401,557.097625 888.286222,557.244086 C888.259491,557.283235 888.232532,557.322768 888.220531,557.340388 C888.666094,557.490373 889.109723,557.639698 889.553294,557.788968 C889.552498,557.801246 889.551645,557.81358 889.550735,557.825858 C889.075597,557.867815 888.600403,557.909771 888.212398,557.944019 C888.088353,558.020938 888.034321,558.083322 887.980801,558.082992 C887.590749,558.080569 887.200754,558.065703 886.810815,558.05436 C886.782776,558.053534 886.736479,558.038558 886.729597,558.049019 C886.540202,558.339465 886.344892,558.062289 886.153506,558.057499 C886.012852,558.05403 885.863042,558.088223 885.733025,558.052213 C885.373401,557.952608 885.021797,557.825693 884.667406,557.708414 C884.08284,557.514875 883.496397,557.326292 882.915357,557.123228 C882.690585,557.044656 882.613462,557.082758 882.615566,557.327559 C882.625292,558.447164 882.619832,559.566934 882.619775,560.686649 L882.619775,561 L882.046299,561 L882.046299,557.102911 C881.798038,557.189576 881.586461,557.261155 881.376591,557.336919 C880.886267,557.514104 880.408456,557.751526 879.901866,557.847552 C879.643253,557.896611 879.380489,558.123021 879.077399,557.955692 C879.035653,557.932566 878.941637,558.015928 878.86878,558.023857 C878.717605,558.040375 878.552382,558.234629 878.409738,557.998804 C878.399955,557.982561 878.305997,558.021599 878.251112,558.022205 C877.904342,558.025674 877.503541,558.133648 877.222974,558.002273 C876.759155,557.785168 876.279069,557.924802 875.797845,557.766503 C876.219918,557.62307 876.622369,557.486244 877.02482,557.349473 C877.013615,557.337304 877.002411,557.325246 876.99115,557.313133 C877.054054,557.269855 877.1111,557.203837 877.180772,557.187154 C877.50155,557.110344 877.909291,557.140462 878.128432,556.956614 C878.425151,556.70785 878.74519,556.939986 879.034117,556.761809 C879.208383,556.654386 879.514544,556.727672 879.758597,556.749641 C880.386957,556.806243 881.013611,556.88008 881.641118,556.945272 C881.701236,556.951494 881.762605,556.946153 881.823348,556.946153 C881.826078,556.919779 881.828808,556.89346 881.831538,556.867141 C881.28286,556.799746 880.734637,556.729158 880.185504,556.665783 C879.661567,556.605272 879.096054,556.649981 878.624613,556.466353 C878.213006,556.305962 877.81738,556.408319 877.430171,556.304365 C877.312212,556.27265 877.154098,556.314551 877.128561,556.122774 C877.125205,556.097006 877.001956,556.076413 876.932625,556.070412 C876.670486,556.047561 876.407664,556.031594 876.123571,556.011607 C876.143876,555.907597 876.156616,555.842075 876.169242,555.777158 C875.743302,555.705965 875.326177,555.636313 874.884311,555.562421 C874.946817,555.445087 874.99283,555.358697 875.030424,555.288109 C874.585715,555.14462 874.150105,555.004105 873.665242,554.847678 C873.788377,554.765637 873.86078,554.717404 873.919703,554.678146 C873.565539,554.536144 873.209442,554.393427 872.853401,554.250709 C872.86125,554.218774 872.869042,554.186839 872.876834,554.154903 C872.980689,554.143176 873.08443,554.131393 873.167695,554.121922 C872.463747,553.67092 871.752292,553.215182 871,552.73329 C871.480313,552.808008 871.916548,552.875512 872.35267,552.943732 C872.797663,553.013439 873.242543,553.083752 873.682475,553.153073 C873.651933,553.108309 873.600347,553.032766 873.532779,552.933656 C873.977545,552.907612 874.328922,553.097902 874.7014,553.303554 C874.690024,553.207418 874.681038,553.130829 874.663464,552.980843 C875.116363,553.169757 875.53508,553.344409 875.978823,553.529469 C876.004929,553.482337 876.051624,553.398094 876.124481,553.266609 C876.473412,553.480464 876.819613,553.692779 877.182877,553.915499 C877.218026,553.871671 877.261308,553.817546 877.333881,553.727026 C877.531979,553.877232 877.72473,554.035697 877.931984,554.173679 C878.005922,554.222959 878.114782,554.22406 878.208399,554.244212 C878.260042,554.255334 878.327951,554.242891 878.3631,554.270972 C878.611077,554.46897 878.821801,554.75435 879.104358,554.855992 C879.398575,554.961819 879.623688,555.115548 879.858584,555.295322 C880.188974,555.548161 880.543649,555.771322 880.888826,556.005991 C881.193679,556.213239 881.499783,556.418946 881.835917,556.646017 C881.803669,556.330519 880.25694,555.187347 879.136265,554.602382 C879.157423,554.535098 879.180059,554.463189 879.198373,554.404879 C878.717776,554.134531 878.244685,553.868422 877.74202,553.585741 C877.835978,553.504251 877.893252,553.454641 877.936534,553.417034 C877.38086,553.090524 876.833491,552.76897 876.271618,552.438825 C876.346011,552.312186 876.390601,552.236092 876.437012,552.157024 C876.021593,551.88563 875.605265,551.613575 875.146507,551.313824 C875.317702,551.213944 875.419964,551.154313 875.519895,551.096059 C875.023713,550.702099 874.531626,550.311554 874.005812,549.894138 C874.229276,549.789743 874.386651,549.716182 874.508478,549.659304 C874.067181,549.160784 873.628671,548.665513 873.190218,548.170186 C873.207394,548.142986 873.224571,548.115731 873.24169,548.088476 C873.410042,548.095909 873.57845,548.103397 873.692542,548.108463 C873.425853,547.751725 873.14085,547.383478 872.873592,547.003614 C872.809266,546.912158 872.803522,546.782215 872.763424,546.644398 C872.983931,546.733266 873.1698,546.808149 873.355612,546.883031 C873.372845,546.866183 873.390078,546.849334 873.407312,546.832485 C872.814442,546.322513 872.724806,545.585855 872.444637,544.934542 C872.241933,544.463387 872.025237,543.997903 871.788465,543.471192 C871.902785,543.561712 871.969784,543.616057 872.038148,543.66864 C872.639208,544.130545 873.246354,544.585126 873.839395,545.056281 C874.20846,545.349479 874.55631,545.66762 874.901999,545.964563 L874.901999,545.502328 C875.51142,545.777687 875.831515,546.278244 876.105769,546.872459 C876.185053,546.702267 876.24847,546.566212 876.354201,546.339196 C876.769392,546.925208 877.149434,547.461609 877.545287,548.020421 C877.639303,547.958147 877.792013,547.856946 877.995457,547.722157 C878.244117,548.28229 878.481174,548.816434 878.723179,549.361646 C878.817137,549.310549 878.921276,549.253837 879.101913,549.155608 C879.248424,549.607547 879.387427,550.036305 879.532631,550.484224 C879.842318,550.369202 879.9373,550.58972 879.999521,550.830171 C880.109689,551.256121 880.206889,551.685209 880.313929,552.131366 C880.374331,552.110884 880.44844,552.085721 880.5784,552.041672 C880.68834,552.51547 880.796802,552.982715 880.912373,553.480575 C880.961741,553.486191 881.050296,553.496212 881.075151,553.498965 C881.396781,554.407853 881.70772,555.286237 882.018601,556.164566 C882.105052,555.655584 881.315051,553.379043 880.764895,552.340762 C880.861811,552.288014 880.959125,552.235101 881.027546,552.19788 C880.732931,551.603113 880.444003,551.019855 880.137786,550.401578 C880.32064,550.387813 880.429614,550.379664 880.565262,550.369477 C880.186926,549.681989 879.757744,549.038109 879.619366,548.2465 C879.744378,548.193697 879.869959,548.140729 880.012887,548.080327 C879.749326,547.535611 879.420074,547.025033 879.38538,546.395523 L879.900387,546.395523 C879.700527,545.66696 879.502942,544.946655 879.29182,544.177181 C879.630058,544.204987 879.880083,544.225579 880.160763,544.248705 C879.863418,543.428961 879.909317,542.612575 879.99281,541.744873 C880.212861,541.886269 880.398162,542.00531 880.601776,542.136189 C880.555877,541.747846 880.486774,541.384225 880.476877,541.019172 C880.466697,540.641951 880.557811,540.276293 880.794868,539.955178 C880.943541,540.167603 881.085786,540.370887 881.228089,540.574226 C881.247825,540.564591 881.26756,540.5549 881.287239,540.545319 C881.287239,540.450009 881.27939,540.353983 881.288718,540.259554 C881.319203,539.950773 881.306691,539.628007 881.398943,539.336791 C881.759078,538.199842 882.153168,537.072859 882.515124,536 C882.571829,536.241717 882.635473,536.570705 882.727383,536.892149 C882.896531,537.483722 883.053792,538.080856 883.269122,538.657121 C883.49998,539.274903 883.696769,539.887564 883.574544,540.55925 C883.600536,540.569051 883.626528,540.578851 883.65252,540.588652 C883.796358,540.397041 883.940196,540.205374 884.102064,539.989756 C884.328314,540.305255 884.417154,540.670583 884.396451,541.052594 C884.376488,541.423153 884.308863,541.791289 884.261258,542.167849 C884.447525,542.057122 884.639253,541.943146 884.875229,541.802852 C884.933868,542.660258 884.985909,543.474606 884.661093,544.297048 C884.93802,544.282843 885.188613,544.269903 885.472194,544.255367 C885.381591,545.026823 885.137198,545.733198 884.843493,546.45598 L885.408437,546.45598 C885.363562,547.085985 885.038575,547.585882 884.768929,548.100094 C884.78184,548.122614 884.786788,548.146235 884.800495,548.152897 C885.172062,548.333606 885.199704,548.344564 885.03721,548.714957 C884.789859,549.278504 884.500022,549.824596 884.216554,550.401853 C884.289923,550.411764 884.395257,550.425915 884.586586,550.451683 C884.279743,551.050359 883.982398,551.630423 883.677773,552.224639 C883.741189,552.258226 883.830483,552.305523 883.887074,552.335476 C883.611968,552.997637 883.322358,553.641407 883.07694,554.300649 C882.836982,554.945466 882.624154,555.601845 882.490383,556.274136 C882.536566,556.286855 882.582863,556.299574 882.629046,556.312238 C883.041734,555.396248 883.448678,554.47833 883.638813,553.46312 C883.720657,553.454145 883.8087,553.44451 883.873709,553.437352 C883.98473,552.951386 884.092509,552.479956 884.205236,551.986611 C884.323764,552.032257 884.399068,552.061219 884.489386,552.096017 C884.550356,551.777436 884.604161,551.471463 884.669226,551.167803 C884.699882,551.024645 884.744757,550.883249 884.796513,550.745652 C884.874831,550.537192 884.93273,550.287988 885.250949,550.453665 C885.39581,549.997983 885.53288,549.566747 885.681667,549.098675 C885.854625,549.197069 885.957854,549.255764 886.063301,549.31578 C886.301609,548.775524 886.537301,548.241104 886.788293,547.672107 C886.984684,547.800068 887.137622,547.899783 887.24432,547.969325 C887.629879,547.421525 888.008727,546.883306 888.431141,546.283254 C888.534313,546.506636 888.597673,546.643682 888.679175,546.820262 C888.949675,546.235902 889.271704,545.731711 889.878793,545.452718 C889.869351,545.639539 889.860991,545.805052 889.849161,546.040492 C890.717706,544.908773 892.053256,544.433654 892.935736,543.408643 C892.95934,543.478075 892.974184,543.498007 892.969122,543.51023 C892.632306,544.326506 892.306807,545.147406 891.948947,545.954927 C891.816768,546.253191 891.608262,546.51974 891.412668,546.83634 C891.612187,546.757327 891.79726,546.684042 892.012988,546.598587 C891.913513,547.231345 891.485582,547.636042 890.968129,548.064084 C891.202115,548.052246 891.364494,548.043932 891.592792,548.032369 C891.194266,548.625869 890.801825,549.160343 890.202301,549.571757 C890.394426,549.660846 890.552085,549.733911 890.781464,549.840344 C890.262247,550.25363 889.770843,550.644781 889.270566,551.043035 C889.36043,551.096169 889.461213,551.155745 889.638721,551.260691 C889.189917,551.555651 888.78138,551.824182 888.356179,552.103726 C888.388257,552.160713 888.431482,552.237358 888.513667,552.383214 C887.964137,552.708568 887.412331,553.035243 886.852903,553.366434 C886.886972,553.396552 886.940321,553.443849 887.040592,553.532662 C886.549586,553.811104 886.07405,554.080902 885.583443,554.359069 C885.601529,554.402126 885.629,554.467428 885.658973,554.538512 C884.614796,555.095396 883.690058,555.799293 882.799103,556.546357 C882.816507,556.571795 882.833968,556.597233 882.851429,556.622671 C882.913309,556.593213 882.98156,556.57207 883.036103,556.533087 C883.493155,556.206412 883.915683,555.816802 884.413514,555.567267 C884.780418,555.383364 885.014631,554.985825 885.372321,554.91777 C885.787853,554.838703 885.9206,554.492976 886.231141,554.343927 C886.3644,554.280001 886.461373,554.107771 886.655545,554.236283 C886.681993,554.253738 886.780671,554.184141 886.836239,554.14268 C887.036839,553.992915 887.233343,553.838029 887.444522,553.674939 C887.511123,553.763146 887.55378,553.819694 887.595242,553.874589 C887.945766,553.656494 888.293218,553.440325 888.657961,553.21342 C888.718305,553.334278 888.761588,553.421109 888.795201,553.488448 C889.225862,553.306197 889.646343,553.128296 890.112437,552.931123 C890.096967,553.071859 890.087981,553.153789 890.082407,553.203949 C890.454145,553.076374 890.823096,552.949789 891.191991,552.823204 C891.205698,552.84666 891.219348,552.870061 891.233112,552.893462 C891.18727,552.969721 891.141485,553.04598 891.109578,553.099114 C891.980854,552.96438 892.854689,552.829316 893.777778,552.686599 C893.03214,553.165572 892.324894,553.619823 891.626121,554.068623 C891.693803,554.078534 891.795155,554.093235 891.926253,554.112397 C891.623733,554.429326 891.233965,554.501786 890.814338,554.601887 C890.915974,554.666142 890.989798,554.712724 891.122887,554.796857 C890.638991,554.954055 890.204177,555.095396 889.755487,555.241197 C889.785858,555.299947 889.830619,555.386392 889.896481,555.513527 C889.46309,555.587254 889.048297,555.657786 888.612176,555.732008 C888.624802,555.789712 888.639021,555.854243 888.659781,555.948838 C888.463845,555.972073 888.277065,555.988591 888.092505,556.017829 C887.91164,556.04657 887.664346,555.917508 887.584663,556.207843 C887.58091,556.221719 887.534215,556.225793 887.506971,556.232125 C887.479387,556.238512 887.450494,556.240109 887.42308,556.247212 C887.00095,556.357223 886.567445,556.266263 886.124727,556.421479 C885.609264,556.602188 885.012413,556.561609 884.452189,556.627902 C883.911247,556.691882 883.372124,556.769518 882.832205,556.841152 C882.832603,556.872151 882.833001,556.90326 882.833456,556.93426" id="Fill-1"></path>
        </g>
    </g>
</svg>